<svg width="231" height="221" viewBox="0 0 231 221" fill="none" xmlns="http://www.w3.org/2000/svg">
<path fill-rule="evenodd" clip-rule="evenodd" d="M120.834 6.52918C120.637 6.27369 120.358 6.17717 119.997 6.2453C119.997 10.2196 119.997 14.1939 119.997 18.1682C99.6655 17.4897 83.4828 25.39 71.4493 41.8719C69.4395 41.9344 67.4399 42.0763 65.4505 42.2977C65.311 42.204 65.1715 42.1075 65.032 42.0139C76.5502 23.5647 93.1051 13.9128 114.696 13.0584C114.696 8.70652 114.696 4.35184 114.696 0C132.197 2.01553 146.194 10.1543 156.687 24.4135C158.143 26.6674 159.492 28.9839 160.733 31.3685C155.396 42.9506 147.119 51.6543 135.901 57.4852C129.178 60.7583 122.11 62.7937 114.696 63.5885C114.696 58.4787 114.696 53.3689 114.696 48.2592C116.463 48.2592 118.23 48.2592 119.997 48.2592C119.905 51.2938 119.998 54.3199 120.276 57.3432C135.487 53.8232 147.019 45.2614 154.874 31.6523C147.08 18.3612 135.734 9.98681 120.834 6.52918Z" fill="#6EC6D8"/>
<path fill-rule="evenodd" clip-rule="evenodd" d="M123.069 9.92758C135.22 13.5357 144.706 20.7745 151.528 31.6442C144.855 42.5451 135.462 49.8776 123.348 53.6447C123.069 49.0118 122.976 44.3761 123.069 39.7347C124.836 39.7347 126.603 39.7347 128.37 39.7347C128.278 41.7304 128.371 43.7175 128.649 45.6961C135.28 42.4032 140.767 37.7192 145.111 31.6442C140.666 25.7481 135.178 21.1578 128.649 17.8761C128.37 20.8994 128.277 23.9256 128.37 26.9602C122.698 26.7218 117.025 26.6735 111.35 26.8183C99.2683 28.4222 89.1307 33.7676 80.9378 42.8574C80.6588 42.951 80.3798 43.0476 80.1008 43.1412C78.2244 42.8999 76.3645 42.5706 74.5205 42.1477C87.0964 26.7189 103.279 19.7639 123.069 21.2827C123.069 17.4986 123.069 13.7117 123.069 9.92758Z" fill="#6EC6D8"/>
<path fill-rule="evenodd" clip-rule="evenodd" d="M165.478 36.0453C170.706 44.9704 173.31 54.6705 173.29 65.1428C173.118 75.6036 170.606 85.4457 165.757 94.666C169.291 97.0336 172.918 99.2563 176.638 101.337C164.168 118.182 147.52 126.369 126.695 125.893C121.316 117.899 118.201 109.05 117.348 99.35C116.478 88.8891 118.199 78.9051 122.51 69.4009C124.035 69.9886 125.523 70.7437 126.974 71.6719C129.9 73.4717 132.784 75.3169 135.623 77.2076C134.81 78.7689 133.927 80.2819 132.973 81.7496C130.432 80.1514 127.875 78.6866 125.3 77.3495C120.567 92.2928 121.962 106.629 129.485 120.357C145.027 120.34 158.048 114.52 168.547 102.898C165.097 100.957 161.749 98.8731 158.502 96.6532C169.226 79.1266 170.621 60.8647 162.687 41.8648C163.877 40.0594 164.808 38.1176 165.478 36.0453Z" fill="#0FA6BA"/>
<path fill-rule="evenodd" clip-rule="evenodd" d="M160.734 44.5656C167.04 60.6501 166.157 76.357 158.084 91.6892C156.793 93.6991 155.538 95.7345 154.317 97.7926C157.572 99.7315 160.827 101.673 164.082 103.612C154.872 112.506 143.898 117.096 131.159 117.38C126.614 108.835 124.708 99.7031 125.439 89.986C125.681 87.0933 126.192 84.2545 126.974 81.4697C130.926 83.8116 134.832 86.2246 138.692 88.7085C137.863 90.2585 136.933 91.7233 135.902 93.1086C134.252 92.1974 132.624 91.2521 131.019 90.2699C130.582 92.5182 130.489 94.7892 130.74 97.0829C131.248 102.173 132.41 107.095 134.228 111.845C141.713 111.214 148.503 108.708 154.596 104.322C152.25 102.789 149.832 101.369 147.342 100.064C147.196 99.9047 147.103 99.7145 147.063 99.4959C150.073 94.6501 152.91 89.6822 155.572 84.5923C160.366 73.1946 160.878 61.6039 157.107 49.8173C157.154 49.5817 157.2 49.3432 157.247 49.1076C158.575 47.7109 159.738 46.195 160.734 44.5656Z" fill="#0FA6BA"/>
<path fill-rule="evenodd" clip-rule="evenodd" d="M63.6373 47.6839C84.8143 46.8181 101.741 54.9568 114.418 72.0973C110.092 74.7232 105.721 77.2781 101.304 79.762C100.273 78.3767 99.3433 76.9119 98.5138 75.3619C101.118 73.7523 103.722 72.1456 106.326 70.536C95.7081 58.6529 82.5016 52.9271 66.7064 53.3614C59.5548 67.0983 58.2992 81.3858 62.9398 96.2269C66.2662 94.1319 69.6606 92.1448 73.1237 90.2655C82.7577 108.524 97.7315 118.886 118.045 121.35C118.963 123.079 119.986 124.734 121.114 126.318C111.064 126.625 101.671 124.212 92.9336 119.079C83.9056 113.773 76.6047 106.628 71.0311 97.6463C67.5382 99.8009 64.0039 101.885 60.4287 103.892C59.2339 101.862 58.3037 99.6846 57.6385 97.3624C52.4746 79.8699 54.4743 63.3113 63.6373 47.6839Z" fill="#6EC6D8"/>
<path fill-rule="evenodd" clip-rule="evenodd" d="M68.662 55.9209C81.2795 56.3581 92.2073 60.9001 101.446 69.547C101.618 69.8167 101.572 70.0523 101.306 70.2567C97.537 72.3914 93.7703 74.5205 90.0064 76.6439C89.091 75.2103 88.2077 73.7427 87.3558 72.2438C88.9562 71.0913 90.6303 70.0495 92.378 69.1212C86.1494 64.6899 79.267 62.2769 71.7312 61.8823C68.9048 68.7067 67.8819 75.8037 68.662 83.1731C71.1731 81.66 73.6842 80.1441 76.1953 78.6311C78.798 83.5507 81.5415 88.3766 84.4262 93.1088C91.9676 103.411 101.965 109.892 114.42 112.554C115.1 114.394 115.751 116.239 116.373 118.09C100.234 115.68 87.6323 107.638 78.5669 93.9604C77.1459 91.3516 75.6577 88.7967 74.1028 86.2958C71.0144 88.1268 67.8986 89.9266 64.7558 91.6894C61.4236 79.2783 62.7258 67.3555 68.662 55.9209Z" fill="#6EC6D8"/>
<path fill-rule="evenodd" clip-rule="evenodd" d="M40.0441 138.73C40.4215 138.73 40.7988 138.73 41.1762 138.73C41.1762 139.36 41.1762 139.986 41.1762 140.617C41.6781 140.617 42.1838 140.617 42.6857 140.617C45.8142 141.458 46.8822 143.473 45.8935 146.655C44.9463 148.61 43.3726 149.489 41.1762 149.296C41.1762 149.927 41.1762 150.553 41.1762 151.183C40.6743 151.183 40.1686 151.183 39.6667 151.183C39.6667 150.553 39.6667 149.927 39.6667 149.296C36.5797 149.353 34.9457 147.843 34.7607 144.768C34.9683 142.421 36.2288 141.036 38.5346 140.617C39.0365 140.617 39.5422 140.617 40.0441 140.617C40.0441 139.986 40.0441 139.36 40.0441 138.73Z" fill="#0F0F0F"/>
<path fill-rule="evenodd" clip-rule="evenodd" d="M25.7039 139.107C27.4323 138.96 29.0663 139.277 30.6098 140.051C31.2967 140.73 31.7344 141.549 31.9307 142.504C33.293 148.81 30.84 151.64 24.5717 150.995C23.1867 150.364 22.3716 149.296 22.1188 147.787C21.8018 145.741 21.9263 143.73 22.4961 141.749C23.1943 140.368 24.2623 139.488 25.7039 139.107Z" fill="#0D0D0D"/>
<path fill-rule="evenodd" clip-rule="evenodd" d="M61.5566 139.107C62.7303 139.05 63.8624 139.239 64.953 139.673C65.9833 139.945 66.2361 140.511 65.7078 141.371C63.0473 139.548 60.9717 140.054 59.481 142.881C59.0999 144.979 59.3527 146.994 60.2358 148.919C62.0472 150.413 63.87 150.413 65.7078 148.919C66.089 150.126 65.587 150.817 64.1983 150.994C61.1189 151.753 59.0433 150.681 57.9715 147.787C57.7186 146.024 57.7186 144.266 57.9715 142.503C58.6432 140.764 59.8358 139.631 61.5566 139.107Z" fill="#0D0D0D"/>
<path fill-rule="evenodd" clip-rule="evenodd" d="M72.1233 139.107C73.2969 139.05 74.4291 139.239 75.5197 139.673C76.5499 139.944 76.8028 140.51 76.2745 141.371C73.6139 139.548 71.5383 140.054 70.0477 142.88C69.6665 144.979 69.9194 146.994 70.8024 148.918C72.6139 150.413 74.4366 150.413 76.2745 148.918C76.6556 150.126 76.1537 150.817 74.7649 150.994C71.6855 151.753 69.6099 150.681 68.5381 147.786C68.2853 146.024 68.2853 144.265 68.5381 142.503C69.2099 140.763 70.4024 139.631 72.1233 139.107Z" fill="#0D0D0D"/>
<path fill-rule="evenodd" clip-rule="evenodd" d="M80.0484 139.107C80.1729 139.107 80.3012 139.107 80.4257 139.107C80.7277 142.224 80.9163 145.368 80.9918 148.542C81.1843 148.153 81.373 147.776 81.5579 147.41C83.4033 144.859 85.1657 142.217 86.8412 139.485C87.1658 139.077 87.5432 139.013 87.9734 139.296C88.347 143.228 88.4715 147.191 88.3508 151.183C87.8488 151.183 87.3431 151.183 86.8412 151.183C86.9054 148.161 86.8412 145.142 86.6525 142.126C84.7015 145.021 82.7542 147.912 80.8031 150.806C80.4937 151.142 80.1163 151.266 79.671 151.183C79.554 147.127 79.6785 143.104 80.0484 139.107Z" fill="#060606"/>
<path fill-rule="evenodd" clip-rule="evenodd" d="M95.1425 139.107C96.8709 138.96 98.5049 139.277 100.048 140.051C100.735 140.73 101.173 141.549 101.369 142.504C102.732 148.81 100.279 151.64 94.0103 150.995C92.6253 150.365 91.8102 149.297 91.5574 147.787C91.2404 145.742 91.3649 143.73 91.9347 141.749C92.6329 140.368 93.7009 139.489 95.1425 139.107Z" fill="#0D0D0D"/>
<path fill-rule="evenodd" clip-rule="evenodd" d="M105.333 139.108C105.457 139.108 105.586 139.108 105.71 139.108C106.065 140.832 106.19 142.595 106.088 144.391C107.975 144.391 109.861 144.391 111.748 144.391C111.748 142.757 111.748 141.119 111.748 139.485C112.152 139.134 112.654 139.006 113.258 139.108C113.258 143.134 113.258 147.157 113.258 151.184C112.756 151.184 112.25 151.184 111.748 151.184C111.748 149.297 111.748 147.41 111.748 145.523C109.861 145.523 107.975 145.523 106.088 145.523C106.088 147.41 106.088 149.297 106.088 151.184C105.71 151.184 105.333 151.184 104.956 151.184C104.839 147.127 104.963 143.104 105.333 139.108Z" fill="#020202"/>
<path fill-rule="evenodd" clip-rule="evenodd" d="M120.051 139.107C121.307 138.93 122.126 139.432 122.504 140.617C123.7 144.013 124.892 147.41 126.089 150.806C125.587 151.308 125.081 151.308 124.579 150.806C124.172 149.964 123.923 149.085 123.824 148.164C121.922 148.04 120.036 148.168 118.164 148.542C117.756 149.383 117.507 150.263 117.409 151.183C116.85 151.281 116.348 151.157 115.899 150.806C117.228 146.874 118.613 142.972 120.051 139.107Z" fill="#171717"/>
<path fill-rule="evenodd" clip-rule="evenodd" d="M141.183 139.107C141.308 139.107 141.436 139.107 141.56 139.107C141.915 140.707 142.04 142.341 141.938 144.013C142.945 144.013 143.949 144.013 144.957 144.013C148.3 144.662 149.244 146.549 147.787 149.674C147.017 150.466 146.074 150.908 144.957 150.995C143.5 151.3 142.119 151.236 140.806 150.806C140.689 146.874 140.817 142.975 141.183 139.107Z" fill="#040404"/>
<path fill-rule="evenodd" clip-rule="evenodd" d="M151.751 139.108C151.875 139.108 152.004 139.108 152.128 139.108C152.483 140.833 152.607 142.595 152.506 144.391C154.392 144.391 156.279 144.391 158.166 144.391C158.166 142.757 158.166 141.12 158.166 139.485C158.57 139.135 159.072 139.006 159.676 139.108C159.676 143.135 159.676 147.158 159.676 151.184C159.174 151.184 158.668 151.184 158.166 151.184C158.166 149.297 158.166 147.411 158.166 145.524C156.279 145.524 154.392 145.524 152.506 145.524C152.506 147.411 152.506 149.297 152.506 151.184C152.128 151.184 151.751 151.184 151.373 151.184C151.256 147.127 151.381 143.105 151.751 139.108Z" fill="#020202"/>
<path fill-rule="evenodd" clip-rule="evenodd" d="M166.09 139.107C167.347 138.929 168.166 139.431 168.543 140.616C169.777 143.998 170.97 147.394 172.129 150.806C171.627 151.308 171.121 151.308 170.619 150.806C170.211 149.964 169.962 149.085 169.864 148.164C167.962 148.039 166.075 148.168 164.203 148.541C163.796 149.383 163.547 150.262 163.449 151.183C162.89 151.281 162.388 151.157 161.939 150.806C163.268 146.873 164.653 142.971 166.09 139.107Z" fill="#171717"/>
<path fill-rule="evenodd" clip-rule="evenodd" d="M202.696 139.107C202.821 139.107 202.949 139.107 203.074 139.107C203.375 142.224 203.564 145.368 203.64 148.542C203.832 148.153 204.021 147.776 204.206 147.41C206.051 144.859 207.813 142.217 209.489 139.485C209.814 139.077 210.191 139.013 210.621 139.296C210.995 143.228 211.119 147.191 210.999 151.183C210.497 151.183 209.991 151.183 209.489 151.183C209.553 148.161 209.489 145.142 209.3 142.126C207.349 145.021 205.402 147.912 203.451 150.806C203.142 151.142 202.764 151.267 202.319 151.183C202.202 147.127 202.326 143.104 202.696 139.107Z" fill="#060606"/>
<path fill-rule="evenodd" clip-rule="evenodd" d="M224.962 139.107C226.219 138.93 227.038 139.431 227.415 140.616C228.612 144.013 229.804 147.409 231.001 150.806C230.499 151.308 229.993 151.308 229.491 150.806C229.083 149.964 228.834 149.085 228.736 148.164C226.834 148.04 224.947 148.168 223.076 148.541C222.668 149.383 222.419 150.262 222.321 151.183C221.762 151.281 221.26 151.157 220.811 150.806C222.14 146.873 223.525 142.971 224.962 139.107Z" fill="#171717"/>
<path fill-rule="evenodd" clip-rule="evenodd" d="M0.419827 139.107C3.15584 138.99 5.86167 139.115 8.53352 139.485C8.72222 143.383 8.78637 147.281 8.72222 151.183C8.2203 151.183 7.71461 151.183 7.21269 151.183C7.21269 147.662 7.21269 144.138 7.21269 140.617C5.32578 140.617 3.43888 140.617 1.55197 140.617C1.55197 144.138 1.55197 147.662 1.55197 151.183C1.05005 151.183 0.544363 151.183 0.0424462 151.183C-0.074542 147.127 0.0499938 143.104 0.419827 139.107Z" fill="#151515"/>
<path fill-rule="evenodd" clip-rule="evenodd" d="M12.4971 139.107C15.0746 138.617 17.2785 139.243 19.1013 140.994C19.8221 145.243 17.9993 147.13 13.6292 146.655C13.6292 148.164 13.6292 149.674 13.6292 151.183C13.1273 151.183 12.6216 151.183 12.1197 151.183C12.0027 147.126 12.1273 143.104 12.4971 139.107Z" fill="#181818"/>
<path fill-rule="evenodd" clip-rule="evenodd" d="M55.5165 140.24C53.8824 140.24 52.2446 140.24 50.6105 140.24C50.4935 141.701 50.6181 143.086 50.9879 144.391C52.3729 144.391 53.7541 144.391 55.1391 144.391C55.2297 144.878 55.1013 145.255 54.7617 145.523C53.3767 145.523 51.9955 145.523 50.6105 145.523C50.6105 147.033 50.6105 148.542 50.6105 150.052C52.2446 150.052 53.8824 150.052 55.5165 150.052C55.8561 150.32 55.9844 150.697 55.8938 151.184C53.7503 151.248 51.6143 151.184 49.4784 150.995C48.9764 147.097 48.9764 143.195 49.4784 139.297C51.486 139.108 53.5012 139.044 55.5165 139.108C55.5165 139.485 55.5165 139.863 55.5165 140.24Z" fill="#191919"/>
<path fill-rule="evenodd" clip-rule="evenodd" d="M130.618 139.107C132.629 139.107 134.644 139.107 136.656 139.107C136.656 143.134 136.656 147.157 136.656 151.183C136.154 151.183 135.648 151.183 135.146 151.183C135.146 147.662 135.146 144.138 135.146 140.617C134.014 140.617 132.882 140.617 131.75 140.617C131.429 143.557 130.863 146.447 130.051 149.297C129.478 150.953 128.41 151.455 126.844 150.806C128.025 149.938 128.844 148.806 129.297 147.41C129.908 144.651 130.346 141.885 130.618 139.107Z" fill="#161616"/>
<path fill-rule="evenodd" clip-rule="evenodd" d="M176.657 139.107C178.292 139.107 179.929 139.107 181.563 139.107C181.563 143.134 181.563 147.157 181.563 151.183C181.062 151.183 180.556 151.183 180.054 151.183C180.054 149.421 180.054 147.663 180.054 145.9C179.141 145.821 178.261 145.949 177.412 146.278C176.416 147.64 175.725 149.149 175.337 150.806C174.823 151.138 174.257 151.263 173.638 151.183C174.012 149.078 174.891 147.191 176.28 145.523C173.665 143.198 173.793 141.062 176.657 139.107Z" fill="#161616"/>
<path fill-rule="evenodd" clip-rule="evenodd" d="M192.507 139.107C194.519 139.107 196.534 139.107 198.545 139.107C198.545 143.134 198.545 147.157 198.545 151.183C198.043 151.183 197.538 151.183 197.036 151.183C197.036 147.663 197.036 144.138 197.036 140.617C195.904 140.617 194.771 140.617 193.639 140.617C193.318 143.557 192.752 146.447 191.941 149.297C191.367 150.953 190.299 151.455 188.733 150.806C189.914 149.938 190.733 148.806 191.186 147.41C191.798 144.651 192.235 141.885 192.507 139.107Z" fill="#161616"/>
<path fill-rule="evenodd" clip-rule="evenodd" d="M215.151 139.107C217.163 139.107 219.178 139.107 221.189 139.107C221.189 139.609 221.189 140.115 221.189 140.617C219.555 140.617 217.917 140.617 216.283 140.617C216.283 144.138 216.283 147.662 216.283 151.183C215.781 151.183 215.276 151.183 214.774 151.183C214.657 147.127 214.781 143.104 215.151 139.107Z" fill="#1C1C1C"/>
<path fill-rule="evenodd" clip-rule="evenodd" d="M15.892 140.617C17.3261 140.67 17.9563 141.425 17.7789 142.881C18.0054 144.161 17.5035 144.916 16.2694 145.146C15.5147 145.146 14.7599 145.146 14.0051 145.146C14.0051 143.636 14.0051 142.127 14.0051 140.617C14.6354 140.617 15.2618 140.617 15.892 140.617Z" fill="#F8F8F8"/>
<path fill-rule="evenodd" clip-rule="evenodd" d="M25.7046 140.241C27.8556 139.84 29.4293 140.595 30.4218 142.505C30.6747 144.267 30.6747 146.026 30.4218 147.788C29.4293 149.762 27.8556 150.452 25.7046 149.864C24.7611 149.422 24.0705 148.732 23.629 147.788C23.3761 146.154 23.3761 144.516 23.629 142.882C23.995 141.705 24.6856 140.825 25.7046 140.241Z" fill="#F7F7F7"/>
<path fill-rule="evenodd" clip-rule="evenodd" d="M95.1439 140.241C97.295 139.841 98.8686 140.595 99.8612 142.505C100.114 144.267 100.114 146.026 99.8612 147.788C98.8686 149.762 97.295 150.453 95.1439 149.864C94.2004 149.422 93.5098 148.732 93.0683 147.788C92.8155 146.154 92.8155 144.516 93.0683 142.882C93.4344 141.705 94.125 140.826 95.1439 140.241Z" fill="#F7F7F7"/>
<path fill-rule="evenodd" clip-rule="evenodd" d="M180.054 140.618C180.054 141.874 180.054 143.135 180.054 144.391C179.046 144.391 178.042 144.391 177.035 144.391C175.699 143.354 175.574 142.157 176.657 140.806C177.782 140.618 178.914 140.557 180.054 140.618Z" fill="#F9F9F9"/>
<path fill-rule="evenodd" clip-rule="evenodd" d="M39.6686 141.749C39.6686 143.761 39.6686 145.776 39.6686 147.787C39.1666 147.787 38.661 147.787 38.159 147.787C36.0042 146.251 35.7551 144.425 37.4043 142.315C38.1024 141.889 38.8572 141.7 39.6686 141.749Z" fill="#F3F3F3"/>
<path fill-rule="evenodd" clip-rule="evenodd" d="M41.1776 141.749C44.4306 141.828 45.5024 143.466 44.3854 146.655C43.5778 147.719 42.5098 148.221 41.1776 148.164C41.1776 146.025 41.1776 143.889 41.1776 141.749Z" fill="#EDEDED"/>
<path fill-rule="evenodd" clip-rule="evenodd" d="M120.805 140.995C121.662 142.742 122.416 144.565 123.069 146.467C121.692 146.655 120.307 146.72 118.918 146.655C119.322 144.689 119.952 142.802 120.805 140.995Z" fill="white"/>
<path fill-rule="evenodd" clip-rule="evenodd" d="M166.846 140.995C167.703 142.742 168.457 144.565 169.11 146.467C167.733 146.655 166.348 146.719 164.959 146.655C165.363 144.689 165.993 142.802 166.846 140.995Z" fill="#ECECEC"/>
<path fill-rule="evenodd" clip-rule="evenodd" d="M225.717 140.995C226.574 142.742 227.328 144.565 227.981 146.467C226.604 146.655 225.219 146.72 223.83 146.655C224.234 144.689 224.864 142.802 225.717 140.995Z" fill="#ECECEC"/>
<path fill-rule="evenodd" clip-rule="evenodd" d="M145.334 145.523C146.387 145.696 146.889 146.323 146.844 147.41C146.889 148.587 146.387 149.342 145.334 149.674C144.327 149.674 143.323 149.674 142.315 149.674C142.315 148.289 142.315 146.908 142.315 145.523C143.323 145.523 144.327 145.523 145.334 145.523Z" fill="#F8F8F8"/>
<path fill-rule="evenodd" clip-rule="evenodd" d="M145.334 145.522C144.326 145.522 143.323 145.522 142.315 145.522C142.315 146.907 142.315 148.289 142.315 149.674C143.323 149.674 144.326 149.674 145.334 149.674C144.281 150.043 143.149 150.168 141.938 150.051C141.938 148.417 141.938 146.779 141.938 145.145C143.149 145.028 144.281 145.153 145.334 145.522Z" fill="white"/>
<path fill-rule="evenodd" clip-rule="evenodd" d="M111.423 153.071C111.801 153.071 112.178 153.071 112.555 153.071C112.423 154.199 112.929 154.701 114.065 154.58C115.201 154.701 115.707 154.199 115.575 153.071C116.076 153.071 116.582 153.071 117.084 153.071C117.02 154.996 116.012 155.875 114.065 155.713C112.299 155.709 111.42 154.83 111.423 153.071Z" fill="#1F1F1F"/>
<path fill-rule="evenodd" clip-rule="evenodd" d="M54.8157 156.467C55.2761 156.667 55.7177 156.916 56.1366 157.222C57.1178 159.581 58.2499 161.845 59.533 164.015C60.3104 161.584 61.1897 159.192 62.1747 156.845C62.737 156.373 63.303 156.373 63.8729 156.845C62.5143 159.973 61.1935 163.12 59.9104 166.279C59.2575 168.211 57.9367 168.902 55.9479 168.355C55.4837 167.909 55.4837 167.468 55.9479 167.034C57.2574 167.562 58.1367 167.124 58.5895 165.713C57.2574 162.86 55.8724 160.03 54.4384 157.222C54.5742 156.965 54.7025 156.712 54.8157 156.467Z" fill="#101010"/>
<path fill-rule="evenodd" clip-rule="evenodd" d="M68.7776 156.467C69.9512 156.41 71.0834 156.599 72.174 157.033C73.2042 157.305 73.4571 157.871 72.9288 158.731C70.2682 156.908 68.1926 157.414 66.702 160.241C66.3208 162.339 66.5737 164.354 67.4567 166.279C69.2682 167.773 71.0909 167.773 72.9288 166.279C73.3099 167.486 72.808 168.177 71.4192 168.354C68.3398 169.113 66.2642 168.041 65.1924 165.147C64.9396 163.384 64.9396 161.626 65.1924 159.863C65.8642 158.123 67.0567 156.991 68.7776 156.467Z" fill="#0D0D0D"/>
<path fill-rule="evenodd" clip-rule="evenodd" d="M79.3441 156.467C80.5177 156.41 81.6499 156.599 82.7405 157.033C83.7708 157.305 84.0236 157.871 83.4953 158.731C80.8347 156.909 78.7592 157.414 77.2685 160.241C76.8873 162.339 77.1402 164.354 78.0233 166.279C79.8347 167.773 81.6574 167.773 83.4953 166.279C83.8764 167.487 83.3745 168.177 81.9858 168.355C78.9063 169.113 76.8307 168.041 75.759 165.147C75.5061 163.384 75.5061 161.626 75.759 159.863C76.4307 158.124 77.6232 156.992 79.3441 156.467Z" fill="#0D0D0D"/>
<path fill-rule="evenodd" clip-rule="evenodd" d="M87.2693 156.467C87.3939 156.467 87.5222 156.467 87.6467 156.467C88.0014 158.192 88.126 159.954 88.0241 161.751C88.7449 161.856 89.3751 161.732 89.911 161.373C90.2884 161.407 90.6016 161.279 90.8544 160.996C91.3828 159.596 91.9488 158.215 92.5527 156.845C93.0546 156.343 93.5603 156.343 94.0622 156.845C93.515 158.939 92.5074 160.766 91.0431 162.317C91.4507 162.679 91.8922 162.992 92.364 163.26C93.0923 164.879 93.7829 166.517 94.4396 168.166C93.9376 168.668 93.432 168.668 92.93 168.166C92.364 166.781 91.7979 165.4 91.2318 164.015C90.9224 163.517 90.4846 163.264 89.911 163.26C89.3751 162.902 88.7449 162.777 88.0241 162.883C88.0241 164.77 88.0241 166.657 88.0241 168.543C87.6467 168.543 87.2693 168.543 86.8919 168.543C86.7749 164.487 86.8995 160.464 87.2693 156.467Z" fill="#0A0A0A"/>
<path fill-rule="evenodd" clip-rule="evenodd" d="M100.1 156.467C101.829 156.319 103.463 156.636 105.006 157.41C105.693 158.089 106.131 158.908 106.327 159.863C107.69 166.169 105.237 168.999 98.9683 168.354C97.5834 167.724 96.7682 166.656 96.5154 165.146C96.1984 163.101 96.3229 161.09 96.8927 159.108C97.5909 157.727 98.6589 156.848 100.1 156.467Z" fill="#0D0D0D"/>
<path fill-rule="evenodd" clip-rule="evenodd" d="M110.29 156.467C110.414 156.467 110.543 156.467 110.667 156.467C110.969 159.585 111.158 162.728 111.233 165.902C111.426 165.513 111.615 165.136 111.799 164.77C113.645 162.219 115.407 159.577 117.083 156.845C117.407 156.437 117.785 156.373 118.215 156.656C118.589 160.588 118.713 164.551 118.592 168.544C118.09 168.544 117.585 168.544 117.083 168.544C117.147 165.521 117.083 162.502 116.894 159.486C114.943 162.381 112.996 165.272 111.045 168.166C110.735 168.502 110.358 168.627 109.913 168.544C109.796 164.487 109.92 160.464 110.29 156.467Z" fill="#060606"/>
<path fill-rule="evenodd" clip-rule="evenodd" d="M141.99 156.466C143.247 156.289 144.066 156.791 144.443 157.976C145.64 161.372 146.832 164.769 148.028 168.165C147.526 168.667 147.021 168.667 146.519 168.165C146.111 167.324 145.862 166.444 145.764 165.523C143.862 165.399 141.975 165.527 140.103 165.901C139.696 166.742 139.447 167.622 139.349 168.543C138.79 168.641 138.288 168.516 137.839 168.165C139.152 164.225 140.537 160.327 141.99 156.466Z" fill="#151515"/>
<path fill-rule="evenodd" clip-rule="evenodd" d="M172.936 156.467C173.061 156.467 173.189 156.467 173.314 156.467C173.668 158.068 173.793 159.702 173.691 161.373C174.446 161.373 175.2 161.373 175.955 161.373C179.329 161.713 180.525 163.475 179.54 166.657C177.453 168.427 175.129 168.932 172.559 168.166C172.442 164.234 172.57 160.336 172.936 156.467Z" fill="#080808"/>
<path fill-rule="evenodd" clip-rule="evenodd" d="M181.992 156.467C182.491 156.403 182.932 156.528 183.313 156.845C183.502 160.743 183.566 164.641 183.502 168.543C183 168.543 182.494 168.543 181.992 168.543C181.992 164.517 181.992 160.494 181.992 156.467Z" fill="#030303"/>
<path fill-rule="evenodd" clip-rule="evenodd" d="M45.7574 156.466C48.3349 155.976 50.5388 156.602 52.3615 158.353C53.0823 162.602 51.2596 164.489 46.8895 164.014C46.8895 165.523 46.8895 167.033 46.8895 168.542C46.3876 168.542 45.8819 168.542 45.38 168.542C45.263 164.486 45.3875 160.463 45.7574 156.466Z" fill="#181818"/>
<path fill-rule="evenodd" clip-rule="evenodd" d="M42.3094 156.467C43.0378 157.928 43.2906 159.566 43.0642 161.373C43.5661 161.373 44.0718 161.373 44.5737 161.373C44.0379 161.732 43.4076 161.856 42.6868 161.751C42.7887 159.954 42.6642 158.192 42.3094 156.467Z" fill="white"/>
<path fill-rule="evenodd" clip-rule="evenodd" d="M129.16 156.467C131.172 156.467 133.187 156.467 135.198 156.467C135.198 160.494 135.198 164.517 135.198 168.544C134.696 168.544 134.191 168.544 133.689 168.544C133.689 165.023 133.689 161.498 133.689 157.977C132.557 157.977 131.424 157.977 130.292 157.977C129.972 160.917 129.405 163.807 128.594 166.657C128.02 168.313 126.952 168.815 125.386 168.166C126.568 167.298 127.386 166.166 127.839 164.77C128.451 162.011 128.888 159.245 129.16 156.467Z" fill="#161616"/>
<path fill-rule="evenodd" clip-rule="evenodd" d="M150.67 156.467C153.406 156.35 156.112 156.475 158.784 156.844C158.972 160.743 159.036 164.641 158.972 168.543C158.47 168.543 157.965 168.543 157.463 168.543C157.463 165.022 157.463 161.497 157.463 157.977C155.576 157.977 153.689 157.977 151.802 157.977C151.802 161.497 151.802 165.022 151.802 168.543C151.3 168.543 150.794 168.543 150.292 168.543C150.175 164.486 150.3 160.463 150.67 156.467Z" fill="#151515"/>
<path fill-rule="evenodd" clip-rule="evenodd" d="M169.917 156.844C169.917 157.221 169.917 157.599 169.917 157.976C168.66 157.976 167.4 157.976 166.143 157.976C166.143 161.497 166.143 165.022 166.143 168.543C165.641 168.543 165.135 168.543 164.633 168.543C164.633 165.022 164.633 161.497 164.633 157.976C163.554 157.723 162.422 157.474 161.237 157.221C164.12 156.844 167.011 156.72 169.917 156.844Z" fill="#0A0A0A"/>
<path fill-rule="evenodd" clip-rule="evenodd" d="M49.1544 157.976C50.5884 158.029 51.2186 158.784 51.0413 160.241C51.2677 161.52 50.7658 162.275 49.5317 162.505C48.777 162.505 48.0222 162.505 47.2675 162.505C47.2675 160.995 47.2675 159.486 47.2675 157.976C47.8977 157.976 48.5241 157.976 49.1544 157.976Z" fill="white"/>
<path fill-rule="evenodd" clip-rule="evenodd" d="M100.101 157.6C102.252 157.2 103.826 157.955 104.818 159.864C105.071 161.627 105.071 163.385 104.818 165.147C103.826 167.121 102.252 167.812 100.101 167.223C99.1577 166.782 98.4671 166.091 98.0256 165.147C97.7727 163.513 97.7727 161.876 98.0256 160.242C98.3916 159.064 99.0822 158.185 100.101 157.6Z" fill="#F7F7F7"/>
<path fill-rule="evenodd" clip-rule="evenodd" d="M49.1534 157.977C48.5232 157.977 47.8968 157.977 47.2665 157.977C47.2665 159.486 47.2665 160.996 47.2665 162.505C48.0213 162.505 48.7761 162.505 49.5308 162.505C48.7346 162.871 47.8553 162.996 46.8892 162.883C46.8892 161.12 46.8892 159.362 46.8892 157.599C47.7345 157.49 48.4893 157.614 49.1534 157.977Z" fill="white"/>
<path fill-rule="evenodd" clip-rule="evenodd" d="M144.631 163.637C143.454 164.007 142.193 164.132 140.857 164.015C141.216 161.999 141.907 160.112 142.933 158.354C143.692 160.06 144.258 161.822 144.631 163.637Z" fill="white"/>
<path fill-rule="evenodd" clip-rule="evenodd" d="M177.086 162.882C176.078 162.882 175.075 162.882 174.067 162.882C174.067 164.267 174.067 165.649 174.067 167.034C174.946 167.034 175.829 167.034 176.709 167.034C175.784 167.4 174.78 167.528 173.69 167.411C173.69 165.777 173.69 164.139 173.69 162.505C174.901 162.388 176.033 162.513 177.086 162.882Z" fill="white"/>
<path fill-rule="evenodd" clip-rule="evenodd" d="M177.085 162.882C178.633 163.66 178.946 164.792 178.029 166.279C177.719 166.777 177.282 167.03 176.708 167.033C175.829 167.033 174.946 167.033 174.066 167.033C174.066 165.648 174.066 164.267 174.066 162.882C175.074 162.882 176.078 162.882 177.085 162.882Z" fill="#F8F8F8"/>
<path fill-rule="evenodd" clip-rule="evenodd" d="M41.9324 156.467C41.5625 160.464 41.438 164.487 41.555 168.544C41.3021 166.596 41.1776 164.585 41.1776 162.506C41.1814 160.351 41.4305 158.339 41.9324 156.467Z" fill="white"/>
<path fill-rule="evenodd" clip-rule="evenodd" d="M89.9119 163.259C89.41 163.259 88.9043 163.259 88.4024 163.259C88.5232 165.093 88.3986 166.856 88.025 168.543C88.025 166.656 88.025 164.769 88.025 162.882C88.7458 162.776 89.376 162.901 89.9119 163.259Z" fill="white"/>
<path fill-rule="evenodd" clip-rule="evenodd" d="M44.9729 173.45C49.8789 173.386 54.7848 173.45 59.6908 173.638C69.4989 174.767 73.8388 180.239 72.7105 190.055C71.3934 196.908 67.3064 200.995 60.4456 202.319C56.9397 202.803 53.4187 202.991 49.8789 202.886C49.943 208.799 49.8789 214.713 49.6902 220.622C47.8033 221.124 45.9164 221.124 44.0295 220.622C43.7766 205.274 43.7766 189.93 44.0295 174.582C44.422 174.254 44.739 173.876 44.9729 173.45Z" fill="#020202"/>
<path fill-rule="evenodd" clip-rule="evenodd" d="M90.6358 173.826C90.6358 187.79 90.6358 201.753 90.6358 215.716C96.5494 215.716 102.459 215.716 108.373 215.716C108.607 215.757 108.795 215.882 108.939 216.093C109.192 217.478 109.192 218.859 108.939 220.244C108.75 220.433 108.561 220.622 108.373 220.81C100.825 221.063 93.2775 221.063 85.7299 220.81C85.277 220.471 84.9638 220.029 84.7864 219.49C84.5336 204.27 84.5336 189.046 84.7864 173.826C85.4091 173.249 86.1639 172.996 87.0507 173.072C88.3376 173.113 89.5339 173.366 90.6358 173.826Z" fill="black"/>
<path fill-rule="evenodd" clip-rule="evenodd" d="M129.883 199.866C128.068 199.492 126.181 199.367 124.223 199.488C124.223 206.534 124.223 213.576 124.223 220.622C122.272 221.116 120.324 221.116 118.373 220.622C118.12 205.273 118.12 189.929 118.373 174.581C118.686 174.268 119.003 173.951 119.317 173.638C124.853 173.385 130.385 173.385 135.921 173.638C144.994 175.736 148.451 181.336 146.299 190.431C144.62 194.012 141.914 196.53 138.186 197.979C139.937 199.039 141.386 200.424 142.526 202.13C145.522 208.115 147.915 214.278 149.696 220.622C147.779 221.052 145.828 221.112 143.846 220.81C141.582 215.334 139.254 209.862 136.865 204.394C135.355 201.598 133.027 200.088 129.883 199.866Z" fill="#020202"/>
<path fill-rule="evenodd" clip-rule="evenodd" d="M167.244 173.827C167.244 187.79 167.244 201.753 167.244 215.716C173.157 215.716 179.067 215.716 184.981 215.716C185.215 215.757 185.403 215.882 185.547 216.093C185.799 217.478 185.799 218.859 185.547 220.244C185.358 220.433 185.169 220.622 184.981 220.81C177.433 221.063 169.885 221.063 162.338 220.81C161.885 220.471 161.572 220.029 161.394 219.49C161.141 204.27 161.141 189.046 161.394 173.827C162.017 173.249 162.772 172.996 163.659 173.072C164.945 173.113 166.142 173.366 167.244 173.827Z" fill="black"/>
<path fill-rule="evenodd" clip-rule="evenodd" d="M90.6359 173.827C91.0132 187.601 91.1378 201.436 91.0132 215.339C96.8664 215.214 102.652 215.339 108.373 215.716C102.459 215.716 96.5494 215.716 90.6359 215.716C90.6359 201.753 90.6359 187.79 90.6359 173.827Z" fill="#878787"/>
<path fill-rule="evenodd" clip-rule="evenodd" d="M167.244 173.827C167.622 187.601 167.746 201.436 167.622 215.339C173.475 215.214 179.26 215.339 184.981 215.716C179.067 215.716 173.158 215.716 167.244 215.716C167.244 201.753 167.244 187.79 167.244 173.827Z" fill="#878787"/>
<path fill-rule="evenodd" clip-rule="evenodd" d="M58.1803 178.733C55.5387 178.733 52.897 178.733 50.2553 178.733C50.2553 185.024 50.2553 191.311 50.2553 197.602C49.8779 191.25 49.7534 184.835 49.8779 178.355C52.7158 178.235 55.4821 178.359 58.1803 178.733Z" fill="#858585"/>
<path fill-rule="evenodd" clip-rule="evenodd" d="M58.1815 178.732C63.5969 179.181 66.3669 182.136 66.4839 187.601C66.5178 192.85 64.0007 196.118 58.9362 197.413C56.0455 197.601 53.151 197.666 50.2565 197.601C50.2565 191.311 50.2565 185.023 50.2565 178.732C52.8981 178.732 55.5398 178.732 58.1815 178.732Z" fill="#FDFDFD"/>
<path fill-rule="evenodd" clip-rule="evenodd" d="M132.901 178.733C130.135 178.733 127.365 178.733 124.599 178.733C124.599 184.017 124.599 189.3 124.599 194.583C124.222 189.24 124.097 183.832 124.222 178.356C127.184 178.231 130.079 178.36 132.901 178.733Z" fill="#858585"/>
<path fill-rule="evenodd" clip-rule="evenodd" d="M132.903 178.732C138.703 179.442 141.156 182.714 140.262 188.544C139.48 191.212 137.782 193.039 135.167 194.016C131.665 194.526 128.144 194.714 124.6 194.582C124.6 189.299 124.6 184.016 124.6 178.732C127.367 178.732 130.137 178.732 132.903 178.732Z" fill="#FDFDFD"/>
<path fill-rule="evenodd" clip-rule="evenodd" d="M129.884 199.866C128.122 199.866 126.363 199.866 124.601 199.866C124.725 206.851 124.601 213.769 124.224 220.622C124.224 213.576 124.224 206.534 124.224 199.489C126.182 199.368 128.069 199.492 129.884 199.866Z" fill="#818181"/>
</svg>
