<svg width="12" height="6" viewBox="0 0 12 6" fill="none" xmlns="http://www.w3.org/2000/svg">
<path d="M11.1641 0.247421C11.0887 0.169022 10.9989 0.106794 10.8999 0.0643287C10.801 0.0218632 10.6949 0 10.5877 0C10.4805 0 10.3744 0.0218632 10.2754 0.0643287C10.1765 0.106794 10.0867 0.169022 10.0112 0.247421L6.29258 4.07837C6.2171 4.15677 6.12731 4.219 6.02836 4.26146C5.92942 4.30393 5.8233 4.32579 5.71612 4.32579C5.60893 4.32579 5.50281 4.30393 5.40387 4.26146C5.30493 4.219 5.21513 4.15677 5.13965 4.07837L1.42102 0.247421C1.34554 0.169022 1.25574 0.106794 1.1568 0.0643287C1.05786 0.0218632 0.951737 0 0.844553 0C0.737369 0 0.631245 0.0218632 0.532305 0.0643287C0.433364 0.106794 0.343564 0.169022 0.268085 0.247421C0.116863 0.404141 0.0319824 0.616141 0.0319824 0.837119C0.0319824 1.0581 0.116863 1.2701 0.268085 1.42682L3.99483 5.26613C4.45154 5.73605 5.07063 6 5.71612 6C6.3616 6 6.98069 5.73605 7.4374 5.26613L11.1641 1.42682C11.3154 1.2701 11.4002 1.0581 11.4002 0.837119C11.4002 0.616141 11.3154 0.404141 11.1641 0.247421Z" fill="#1E606B"/>
</svg>
